<svg xmlns="http://www.w3.org/2000/svg" width="512px" height="512px" viewBox="0 0 512 512">
  <path d="M 258.71 160.00 A 141.67 141.67 0 0 1 315.26 166.00 A 39.67 39.67 0 0 1 347.00 204.60 C 334.31 215.62 318.32 222.44 302.75 229.89 C 287.18 237.35 272.03 245.45 256.67 253.12 C 241.31 260.80 225.75 268.06 210.43 276.03 C 195.11 284.00 180.05 292.68 163.73 296.73 A 146.84 146.84 0 0 1 166.00 196.32 C 167.93 193.75 170.52 192.76 173.19 193.16 C 175.86 193.56 178.61 195.35 181.02 194.82 C 183.44 194.28 185.52 191.41 187.44 189.40 C 189.37 187.39 191.14 186.24 193.22 183.78 A 65.13 65.13 0 0 1 258.71 160.00 Z" fill="none" stroke="rgb(0,0,0)" stroke-width="1.0" stroke-linecap="round" stroke-linejoin="miter" stroke-miterlimit="8" />
</svg>
